# xmcd CD database file generated by OrangeCD 5.2
#
# Track frame offsets:
#	150
#	10997
#	33006
#	60332
#	77500
#	90968
#	102497
#	117418
#	131970
#	142374
#	159654
#	171717
#	185005
#	198438
#	217060
#	252664
#	264324
#	282545
#	301435
#	311468
#
# Disc length: 4451 seconds
#
# Revision: 0
# Processed by: cddbd v1.5PL3 Copyright (c) Steve Scherf et al.
# Submitted via: OrangeCD 5.2
#
DISCID=2f116114
DTITLE=Various Artist - The World's Greatest Disc Jockey v 1
DYEAR=2001
DGENRE=Blues
TTITLE0=Introduction
TTITLE1=It Ain't No Use - ZZ Hill
TTITLE2=Right Place Wrong Time - Bobby Patterson
TTITLE3=When The Flavors Gone - Bobby McClure
TTITLE4=She'll Never Be Your Wife - Irma Thomas
TTITLE5=Hard Life Blues - Guitar Shorty
TTITLE6=Loving You #44 - Ruby Anderws
TTITLE7=My woman Got a caseworker - Wilson Williams
TTITLE8=I Tried - Little Oscar
TTITLE9=Brown Sugar - Ruth Brown
TTITLE10=I've Been Hit By Love - Don Hollinger
TTITLE11=Hard Walking Hannah - Jimmy Reed
TTITLE12=Good Morning Heartaches - Lignthing Slim
TTITLE13=Mana's Baby Daddy's Maybe - Swamp Dogg
TTITLE14=Saved By The Bell - Roy C
TTITLE15=My Baby Gone - Willie Williams
TTITLE16=Party Down - Willie Clayton
TTITLE17=Tell Him - Charles Wilson
TTITLE18=Between The Lines - Charlie Whitehead
TTITLE19=Second Chance - ZZ Hill
EXTD=
EXTT0=
EXTT1=
EXTT2=
EXTT3=
EXTT4=
EXTT5=
EXTT6=
EXTT7=
EXTT8=
EXTT9=
EXTT10=
EXTT11=
EXTT12=
EXTT13=
EXTT14=
EXTT15=
EXTT16=
EXTT17=
EXTT18=
EXTT19=
PLAYORDER=
